<?xml version="1.0" encoding="UTF-8"?>
<svg width="36px" height="36px" viewBox="0 0 36 36" version="1.1" xmlns="http://www.w3.org/2000/svg" xmlns:xlink="http://www.w3.org/1999/xlink">
    <title>a-socialIcon__instagram</title>
    <g id="Shared-Design" stroke="none" stroke-width="1" fill="none" fill-rule="evenodd">
        <g id="HG-Concepts---Shared-Page-XL" transform="translate(-1198.000000, -9140.000000)" fill="#1F2044" fill-rule="nonzero">
            <g id=".o-footer--large" transform="translate(0.000000, 8951.000000)">
                <g id=".m-card--large" transform="translate(1102.000000, 53.000000)">
                    <g id="Group-4">
                        <g id=".m-socialIcons" transform="translate(0.000000, 136.000000)">
                            <g id=".a-socialIcon__instagram" transform="translate(96.000000, 0.000000)">
                                <g id="Layer_1">
                                    <g id="Group">
                                        <path d="M18.072,12.96 C20.8555151,12.96 23.112,15.2164849 23.112,18 C23.112,20.7835151 20.8555151,23.04 18.072,23.04 C15.2884849,23.04 13.032,20.7835151 13.032,18 C13.032,15.2164849 15.2884849,12.96 18.072,12.96 Z M18.072,14.4 C16.0837749,14.4 14.472,16.0117749 14.472,18 C14.472,19.9882251 16.0837749,21.6 18.072,21.6 C20.0602251,21.6 21.672,19.9882251 21.672,18 C21.672,16.0117749 20.0602251,14.4 18.072,14.4 Z" id="Combined-Shape"></path>
                                        <path d="M23.184,11.736 C23.832,11.736 24.336,12.24 24.336,12.888 C24.336,13.536 23.832,14.04 23.184,14.04 C22.536,14.04 22.032,13.536 22.032,12.888 C22.032,12.24 22.536,11.736 23.184,11.736 Z" id="Shape"></path>
                                        <path d="M18.216,0.144 C8.424,0.144 0.504,8.064 0.504,17.856 C0.504,27.648 8.424,35.568 18.216,35.568 C28.008,35.568 35.928,27.648 35.928,17.856 C36,8.064 28.008,0.144 18.216,0.144 Z M27.648,22.032 C27.648,23.688 27.072,25.128 26.064,26.136 C25.056,27.144 23.616,27.648 22.032,27.648 L14.184,27.648 C12.6,27.648 11.16,27.144 10.152,26.136 C9.072,25.128 8.568,23.688 8.568,22.032 L8.568,14.112 C8.568,10.8 10.8,8.496 14.184,8.496 L22.104,8.496 C23.76,8.496 25.128,9.072 26.136,10.08 C27.144,11.088 27.648,12.456 27.648,14.112 L27.648,22.032 Z" id="Shape"></path>
                                    </g>
                                </g>
                            </g>
                        </g>
                    </g>
                </g>
            </g>
        </g>
    </g>
</svg>