<?xml version="1.0" encoding="UTF-8"?>
<svg width="72px" height="72px" viewBox="0 0 72 72" version="1.1" xmlns="http://www.w3.org/2000/svg" xmlns:xlink="http://www.w3.org/1999/xlink">
    <title>2D1941FD-5D3F-4D85-BA24-B9FF9A9880D9</title>
    <g id="Home-Design" stroke="none" stroke-width="1" fill="none" fill-rule="evenodd">
        <g id="HG-Wires---Home-XL" transform="translate(-423.000000, -854.000000)">
            <g id=".o-features--large-copy" transform="translate(422.000000, 751.000000)">
                <g id="SharedHosting-Yellow" transform="translate(1.000000, 103.000000)">
                    <polygon id="Oval" fill="#FFD54C" points="72 72 0 0 0 72"></polygon>
                    <path d="M72,0 L72,72 L61,72 L0,72 L0,0 L72,0 Z M72,7 L7,7 L7,72 L72,72 L72,7 Z" id="Path-10-Copy-3" fill="#1F2044" fill-rule="nonzero"></path>
                    <rect id="Rectangle" stroke="#1F2044" stroke-width="7" x="39.5" y="39.5" width="23" height="23"></rect>
                    <rect id="Rectangle" fill="#1F2044" x="12" y="12" width="7" height="7"></rect>
                    <rect id="Rectangle" fill="#1F2044" x="22" y="12" width="7" height="7"></rect>
                    <rect id="Rectangle" fill="#1F2044" x="32" y="12" width="7" height="7"></rect>
                    <rect id="Rectangle-Copy-18" fill="#1F2044" x="12" y="56" width="11" height="7"></rect>
                    <rect id="Rectangle-Copy-21" fill="#1F2044" x="12" y="46" width="20" height="7"></rect>
                    <rect id="Rectangle-Copy-23" fill="#1F2044" x="12" y="36" width="20" height="7"></rect>
                    <rect id="Rectangle-Copy-25" fill="#1F2044" x="12" y="23" width="60" height="7"></rect>
                </g>
            </g>
        </g>
    </g>
</svg>