<?xml version="1.0" encoding="utf-8"?><svg width="36" height="36" viewBox="0 0 36 36" fill="none" xmlns="http://www.w3.org/2000/svg"><path fill-rule="evenodd" clip-rule="evenodd" d="M18 7.16883C15.2888 7.16883 13.091 9.28821 13.091 11.9026C13.091 14.517 15.2888 16.6364 18 16.6364C20.7113 16.6364 22.9091 14.517 22.9091 11.9026C22.9091 9.28821 20.7113 7.16883 18 7.16883ZM11.4546 11.9026C11.4546 8.41675 14.3851 5.59091 18 5.59091C21.615 5.59091 24.5455 8.41675 24.5455 11.9026C24.5455 15.3884 21.615 18.2143 18 18.2143C14.3851 18.2143 11.4546 15.3884 11.4546 11.9026Z" fill="#00A88E" stroke="#00A88E" stroke-miterlimit="10" stroke-linecap="square" /><path fill-rule="evenodd" clip-rule="evenodd" d="M6.54547 25.3149C6.54547 22.2677 9.11269 19.7922 12.2727 19.7922H23.7273C26.8873 19.7922 29.4546 22.2677 29.4546 25.3149V28.4708H27.8182V25.3149C27.8182 23.1392 25.9836 21.3701 23.7273 21.3701H12.2727C10.0164 21.3701 8.18183 23.1392 8.18183 25.3149V28.4708H6.54547V25.3149Z" fill="#00A88E" stroke="#00A88E" stroke-miterlimit="10" /></svg>