<?xml version="1.0" encoding="utf-8"?><svg width="30" height="30" viewBox="0 0 30 30" fill="none" xmlns="http://www.w3.org/2000/svg"><path fill-rule="evenodd" clip-rule="evenodd" d="M15 5.45455C12.7406 5.45455 10.909 7.28611 10.909 9.54546C10.909 11.8048 12.7406 13.6364 15 13.6364C17.2593 13.6364 19.0909 11.8048 19.0909 9.54546C19.0909 7.28611 17.2593 5.45455 15 5.45455ZM9.54541 9.54546C9.54541 6.533 11.9875 4.09091 15 4.09091C18.0124 4.09091 20.4545 6.533 20.4545 9.54546C20.4545 12.5579 18.0124 15 15 15C11.9875 15 9.54541 12.5579 9.54541 9.54546Z" fill="#265951" stroke="#265951" stroke-miterlimit="10" stroke-linecap="square" /><path fill-rule="evenodd" clip-rule="evenodd" d="M5.45453 21.1364C5.45453 18.503 7.59388 16.3636 10.2273 16.3636H19.7727C22.4061 16.3636 24.5454 18.503 24.5454 21.1364V23.8636H23.1818V21.1364C23.1818 19.2561 21.653 17.7273 19.7727 17.7273H10.2273C8.347 17.7273 6.81817 19.2561 6.81817 21.1364V23.8636H5.45453V21.1364Z" fill="#265951" stroke="#265951" stroke-miterlimit="10" /><path d="M15 26.5656L13.4898 25.0555L14.7353 17.5455H15.2647L16.5101 25.0555L15 26.5656Z" fill="#265951" stroke="#265951" /></svg>