<?xml version="1.0" encoding="utf-8"?><svg width="30" height="30" viewBox="0 0 30 30" fill="none" xmlns="http://www.w3.org/2000/svg"><path fill-rule="evenodd" clip-rule="evenodd" d="M15 4.09091C11.9875 4.09091 9.54547 6.53299 9.54547 9.54545V9.88636H8.86365V9.54545C8.86365 6.15643 11.611 3.40909 15 3.40909C18.389 3.40909 21.1364 6.15643 21.1364 9.54545V9.88636H20.4546V9.54545C20.4546 6.53299 18.0125 4.09091 15 4.09091Z" fill="#1D1D1B" /><path fill-rule="evenodd" clip-rule="evenodd" d="M20.4545 13.2955V10.9091H21.1363V13.2955C21.1363 14.6134 20.0679 15.6818 18.75 15.6818H17.0454V15H18.75C19.6913 15 20.4545 14.2368 20.4545 13.2955Z" fill="#1D1D1B" /><path d="M20.4545 7.5H22.5V11.5909H20.4545V7.5Z" fill="#1D1D1B" /><path d="M7.5 7.5H9.54545V11.5909H7.5V7.5Z" fill="#1D1D1B" /><path fill-rule="evenodd" clip-rule="evenodd" d="M19.0909 15.6818H17.0454V14.3182H19.0909V15.6818Z" fill="#1D1D1B" /><path d="M14.3113 17.0455L12.9545 23.8636L15 25.9091L17.0454 23.8636L15.6886 17.0455H14.3113Z" fill="#00A88E" /><path fill-rule="evenodd" clip-rule="evenodd" d="M15 6.13636C13.1172 6.13636 11.5909 7.66266 11.5909 9.54545C11.5909 11.4282 13.1172 12.9545 15 12.9545C16.8828 12.9545 18.4091 11.4282 18.4091 9.54545C18.4091 7.66266 16.8828 6.13636 15 6.13636ZM10.2273 9.54545C10.2273 6.90954 12.3641 4.77272 15 4.77272C17.6359 4.77272 19.7727 6.90954 19.7727 9.54545C19.7727 12.1814 17.6359 14.3182 15 14.3182C12.3641 14.3182 10.2273 12.1814 10.2273 9.54545Z" fill="#00A88E" /><path fill-rule="evenodd" clip-rule="evenodd" d="M5.45453 21.1364C5.45453 18.503 7.59388 16.3636 10.2273 16.3636H19.7727C22.4061 16.3636 24.5454 18.503 24.5454 21.1364V23.8636H23.1818V21.1364C23.1818 19.2561 21.653 17.7273 19.7727 17.7273H10.2273C8.347 17.7273 6.81817 19.2561 6.81817 21.1364V23.8636H5.45453V21.1364Z" fill="#00A88E" /></svg>