<?xml version="1.0" encoding="utf-8"?><svg width="31" height="31" viewBox="0 0 31 31" fill="none" xmlns="http://www.w3.org/2000/svg"><path fill-rule="evenodd" clip-rule="evenodd" d="M7 5.90159C7.51249 5.74028 7.96174 5.42237 8.29876 5L10.187 8.07923C9.70653 8.30194 9.26828 8.60842 8.88856 8.98133L7 5.90159ZM14.7404 16.6514C13.9798 17.2275 13.0493 17.5662 12.0445 17.5662C9.47479 17.5662 7.39163 15.3507 7.39163 12.6178C7.39163 9.88486 9.47479 7.66938 12.0445 7.66938C13.45 7.66938 14.7099 8.33215 15.5631 9.37987L21.4135 5.94137C21.5099 6.50258 21.7132 7.02411 22 7.48126L16.3698 10.7904C16.5811 11.3557 16.6974 11.9723 16.6974 12.6178C16.6974 13.6866 16.3788 14.6762 15.8371 15.4851L18.9857 18.8337C18.5732 19.1688 18.2041 19.5613 17.8889 20L14.7404 16.6514ZM9.95474 17.0407C9.48636 16.7899 9.06329 16.4574 8.70207 16.0608L7.17429 18.6415C7.66936 18.8343 8.11716 19.1314 8.49416 19.5078L9.95474 17.0407ZM15.1464 12.6178C15.1464 14.4398 13.7576 15.9168 12.0445 15.9168C10.3314 15.9168 8.94258 14.4398 8.94258 12.6178C8.94258 10.7958 10.3314 9.31885 12.0445 9.31885C13.7576 9.31885 15.1464 10.7958 15.1464 12.6178Z" fill="#1D1D1B" /><path fill-rule="evenodd" clip-rule="evenodd" d="M22.5 27.4C24.7275 27.4 26.5333 25.4301 26.5333 23C26.5333 20.5699 24.7275 18.6 22.5 18.6C20.2725 18.6 18.4667 20.5699 18.4667 23C18.4667 25.4301 20.2725 27.4 22.5 27.4ZM22.5 29C25.5376 29 28 26.3137 28 23C28 19.6863 25.5376 17 22.5 17C19.4624 17 17 19.6863 17 23C17 26.3137 19.4624 29 22.5 29Z" fill="#265951" /><path fill-rule="evenodd" clip-rule="evenodd" d="M6.5 4.57143C7.09173 4.57143 7.57143 4.09173 7.57143 3.5C7.57143 2.90827 7.09173 2.42857 6.5 2.42857C5.90827 2.42857 5.42857 2.90827 5.42857 3.5C5.42857 4.09173 5.90827 4.57143 6.5 4.57143ZM6.5 6C7.88071 6 9 4.88071 9 3.5C9 2.11929 7.88071 1 6.5 1C5.11929 1 4 2.11929 4 3.5C4 4.88071 5.11929 6 6.5 6Z" fill="#265951" /><path fill-rule="evenodd" clip-rule="evenodd" d="M6 24.4C7.32548 24.4 8.4 23.3255 8.4 22C8.4 20.6745 7.32548 19.6 6 19.6C4.67452 19.6 3.6 20.6745 3.6 22C3.6 23.3255 4.67452 24.4 6 24.4ZM6 26C8.20914 26 10 24.2091 10 22C10 19.7909 8.20914 18 6 18C3.79086 18 2 19.7909 2 22C2 24.2091 3.79086 26 6 26Z" fill="#265951" /><path fill-rule="evenodd" clip-rule="evenodd" d="M25 8.4C26.3255 8.4 27.4 7.32548 27.4 6C27.4 4.67452 26.3255 3.6 25 3.6C23.6745 3.6 22.6 4.67452 22.6 6C22.6 7.32548 23.6745 8.4 25 8.4ZM25 10C27.2091 10 29 8.20914 29 6C29 3.79086 27.2091 2 25 2C22.7909 2 21 3.79086 21 6C21 8.20914 22.7909 10 25 10Z" fill="#265951" /></svg>