<?xml version="1.0" encoding="UTF-8"?>
<svg width="36px" height="36px" viewBox="0 0 36 36" version="1.1" xmlns="http://www.w3.org/2000/svg" xmlns:xlink="http://www.w3.org/1999/xlink">
    <title>a-socialIcon__twitter</title>
    <g id="Shared-Design" stroke="none" stroke-width="1" fill="none" fill-rule="evenodd">
        <g id="HG-Concepts---Shared-Page-XL" transform="translate(-1150.000000, -9140.000000)" fill="#1F2044" fill-rule="nonzero">
            <g id=".o-footer--large" transform="translate(0.000000, 8951.000000)">
                <g id=".m-card--large" transform="translate(1102.000000, 53.000000)">
                    <g id="Group-4">
                        <g id=".m-socialIcons" transform="translate(0.000000, 136.000000)">
                            <g id=".a-socialIcon__twitter" transform="translate(48.000000, 0.000000)">
                                <g id="Layer_1">
                                    <path d="M17.73,0 C7.938,0 0,7.93944 0,17.73 C0,27.522 7.938,35.45856 17.73,35.45856 C27.522,35.45856 35.45856,27.522 35.45856,17.73 C35.45856,7.93944 27.52128,0 17.73,0 Z M26.66088,14.1552 C26.67024,14.34672 26.67384,14.53896 26.67384,14.73336 C26.67384,20.63808 22.1796,27.44568 13.96152,27.44568 C11.43864,27.44568 9.08928,26.70624 7.11216,25.43904 C7.46208,25.48008 7.81704,25.50096 8.17776,25.50096 C10.27152,25.50096 12.19824,24.78672 13.7268,23.58864 C11.772,23.55192 10.12248,22.25952 9.55368,20.48472 C9.82584,20.538 10.10592,20.56464 10.39392,20.56464 C10.80144,20.56464 11.196,20.51136 11.57112,20.4084 C9.52632,19.998 7.98624,18.1908 7.98624,16.02792 C7.98624,16.00848 7.98624,15.98976 7.98696,15.97032 C8.58888,16.30512 9.27792,16.506 10.01088,16.52976 C8.81136,15.72696 8.02296,14.36112 8.02296,12.81024 C8.02296,11.9916 8.24328,11.22336 8.62776,10.56384 C10.83168,13.26672 14.12424,15.04584 17.838,15.2316 C17.76168,14.90544 17.72208,14.56344 17.72208,14.21352 C17.72208,11.7468 19.72224,9.74592 22.1904,9.74592 C23.4756,9.74592 24.63624,10.2888 25.45128,11.1564 C26.46936,10.95696 27.42552,10.584 28.2888,10.07208 C27.954,11.11608 27.24624,11.9916 26.3232,12.54384 C27.22824,12.43584 28.08936,12.19536 28.89,11.8404 C28.2924,12.73824 27.53424,13.5252 26.66088,14.1552 Z" id="Shape"></path>
                                </g>
                            </g>
                        </g>
                    </g>
                </g>
            </g>
        </g>
    </g>
</svg>