<?xml version="1.0" encoding="UTF-8"?>
<svg width="36px" height="36px" viewBox="0 0 36 36" version="1.1" xmlns="http://www.w3.org/2000/svg" xmlns:xlink="http://www.w3.org/1999/xlink">
    <title>a-socialIcon__pininterest</title>
    <g id="Shared-Design" stroke="none" stroke-width="1" fill="none" fill-rule="evenodd">
        <g id="HG-Concepts---Shared-Page-XL" transform="translate(-1246.000000, -9140.000000)" fill="#1F2044" fill-rule="nonzero">
            <g id=".o-footer--large" transform="translate(0.000000, 8951.000000)">
                <g id=".m-card--large" transform="translate(1102.000000, 53.000000)">
                    <g id="Group-4">
                        <g id=".m-socialIcons" transform="translate(0.000000, 136.000000)">
                            <g id=".a-socialIcon__pininterest" transform="translate(144.000000, 0.000000)">
                                <g id="Capa_1">
                                    <path d="M17.9797753,0 C8.0494382,0 0,8.0494382 0,17.9797753 C0,27.9101124 8.0494382,35.9595506 17.9797753,35.9595506 C27.9101124,35.9595506 35.9595506,27.9101124 35.9595506,17.9797753 C35.952809,8.0494382 27.9033708,0 17.9797753,0 Z M19.7191011,24.0202247 C18.0876404,23.8921348 17.4,23.0831461 16.1191011,22.3078652 C15.4179775,26.0022472 14.5550562,29.541573 12.0067416,31.388764 C11.2179775,25.8067416 13.1595506,21.6134831 14.0629213,17.1640449 C12.5258427,14.5752809 14.2449438,9.37078652 17.4876404,10.6516854 C21.4786517,12.2292135 14.0292135,20.2719101 19.0314607,21.2764045 C24.2494382,22.3280899 26.3797753,12.2224719 23.1438202,8.93932584 C18.4719101,4.19325843 9.53932584,8.83146067 10.6382022,15.6202247 C10.9078652,17.2786517 12.6202247,17.7842697 11.3258427,20.0764045 C8.33258427,19.4157303 7.44269663,17.0561798 7.55730337,13.9078652 C7.73932584,8.75730337 12.1820225,5.1505618 16.6382022,4.65168539 C22.2741573,4.01797753 27.5595506,6.72134831 28.294382,12.0202247 C29.1101124,18.0067416 25.7460674,24.4853933 19.7191011,24.0202247 Z" id="Shape"></path>
                                </g>
                            </g>
                        </g>
                    </g>
                </g>
            </g>
        </g>
    </g>
</svg>