<?xml version="1.0" encoding="UTF-8"?>
<svg width="36px" height="36px" viewBox="0 0 36 36" version="1.1" xmlns="http://www.w3.org/2000/svg" xmlns:xlink="http://www.w3.org/1999/xlink">
    <title>a-socialIcon__facebook</title>
    <g id="Shared-Design" stroke="none" stroke-width="1" fill="none" fill-rule="evenodd">
        <g id="HG-Concepts---Shared-Page-XL" transform="translate(-1102.000000, -9140.000000)" fill="#1F2044" fill-rule="nonzero">
            <g id=".o-footer--large" transform="translate(0.000000, 8951.000000)">
                <g id=".m-card--large" transform="translate(1102.000000, 53.000000)">
                    <g id="Group-4">
                        <g id=".m-socialIcons" transform="translate(0.000000, 136.000000)">
                            <g id=".a-socialIcon__facebook">
                                <g id="Layer_1">
                                    <path d="M17.73,0 C7.938,0 0,7.93944 0,17.73 C0,27.522 7.938,35.45856 17.73,35.45856 C27.522,35.45856 35.46,27.522 35.46,17.73 C35.46,7.93944 27.52128,0 17.73,0 Z M22.42224,17.65584 L19.35216,17.65584 L19.35216,28.60488 L14.80176,28.60488 L14.80176,17.65584 L12.63744,17.65584 L12.63744,13.79016 L14.80176,13.79016 L14.80176,11.28528 C14.80176,9.49248 15.6528,6.69384 19.39464,6.69384 L22.76424,6.7068 L22.76424,10.4616 L20.31768,10.4616 C19.91808,10.4616 19.35288,10.66104 19.35288,11.51352 L19.35288,13.79088 L22.82184,13.79088 L22.42224,17.65584 Z" id="Shape"></path>
                                </g>
                            </g>
                        </g>
                    </g>
                </g>
            </g>
        </g>
    </g>
</svg>