<?xml version="1.0" standalone="no"?>
<!DOCTYPE svg PUBLIC "-//W3C//DTD SVG 20010904//EN"
 "http://www.w3.org/TR/2001/REC-SVG-20010904/DTD/svg10.dtd">
<svg version="1.0" xmlns="http://www.w3.org/2000/svg"
 width="1068.000000pt" height="1068.000000pt" viewBox="0 0 1068.000000 1068.000000"
 preserveAspectRatio="xMidYMid meet">
<metadata>
Created by potrace 1.11, written by Peter Selinger 2001-2013
</metadata>
<g transform="translate(0.000000,1068.000000) scale(0.100000,-0.100000)"
fill="#000000" stroke="none">
<path d="M4645 10581 c-132 -21 -278 -86 -392 -174 -82 -63 -247 -238 -317
-336 -145 -203 -289 -479 -414 -792 -79 -197 -202 -568 -253 -762 l-34 -128
-195 -106 c-857 -468 -1466 -861 -1714 -1106 -112 -112 -141 -165 -133 -242
13 -131 94 -207 367 -345 221 -113 370 -228 448 -345 29 -44 30 -46 16 -92 -8
-25 -15 -47 -17 -48 -38 -25 -237 -176 -344 -262 -194 -153 -365 -305 -503
-443 -366 -367 -460 -602 -310 -773 95 -108 190 -145 615 -243 173 -39 307
-83 370 -120 l40 -23 24 -194 c13 -113 20 -208 16 -227 -5 -25 -67 -91 -265
-289 -333 -332 -505 -530 -786 -906 -307 -412 -616 -891 -745 -1160 -44 -91
-49 -107 -49 -171 0 -293 278 -699 795 -1160 l150 -134 2202 0 c1926 0 2203 2
2203 15 0 32 -42 339 -66 480 -111 661 -349 1420 -679 2165 -42 96 -148 321
-235 500 -246 506 -354 806 -399 1110 -7 41 -14 88 -16 103 -4 22 9 10 57 -55
94 -128 311 -396 454 -563 195 -226 335 -377 586 -631 l229 -231 -73 -56
c-109 -83 -282 -266 -267 -282 2 -2 38 17 79 42 105 64 358 195 369 191 6 -1
76 -62 158 -135 666 -591 1343 -1037 1912 -1259 l75 -29 -140 -12 c-631 -57
-1261 -273 -1724 -591 -98 -67 -193 -142 -188 -148 2 -1 57 24 123 57 280 139
619 249 949 309 207 37 360 51 631 57 276 6 430 -2 677 -34 70 -9 130 -15 132
-12 5 5 -16 220 -40 412 -9 71 -14 131 -11 133 2 3 58 -29 123 -69 65 -41 173
-105 239 -142 66 -38 121 -69 123 -71 2 -1 -10 -24 -26 -50 -16 -27 -108 -182
-205 -345 l-176 -295 6 -282 6 -282 843 0 843 0 84 108 c454 580 701 1007 731
1262 16 134 -81 320 -327 628 -154 193 -574 653 -596 652 -3 0 -22 -24 -41
-52 -41 -60 -115 -122 -185 -154 -27 -13 -106 -32 -175 -44 -221 -37 -365 -79
-613 -179 -249 -100 -399 -131 -635 -131 -201 0 -342 32 -607 136 -625 248
-1609 872 -2900 1840 -528 395 -777 606 -1095 924 -684 683 -1003 1293 -977
1865 9 198 60 393 153 576 206 412 511 575 1008 538 181 -13 273 -35 391 -94
141 -71 266 -166 426 -325 211 -211 415 -472 724 -930 201 -297 371 -443 705
-603 181 -88 338 -148 540 -207 131 -38 387 -99 417 -100 9 0 7 13 -6 43 -45
105 -58 256 -32 367 33 137 124 284 252 405 183 172 386 260 629 272 190 9
371 -25 758 -141 100 -31 219 -65 264 -76 l81 -21 52 35 c68 45 218 120 273
136 23 7 42 16 42 20 0 18 -73 114 -145 189 -174 183 -367 289 -628 346 -29 6
-29 6 -23 63 86 784 -52 1573 -344 1960 -90 120 -173 186 -279 222 -108 36
-238 22 -341 -38 -54 -31 -163 -133 -191 -179 -11 -18 -25 -33 -30 -33 -6 0
-58 27 -117 60 -325 181 -709 295 -1069 316 l-112 7 -55 108 c-214 424 -520
711 -847 793 -79 19 -234 28 -304 17z m-22 -1149 c390 -260 783 -861 1028
-1572 29 -83 50 -153 47 -155 -3 -3 -115 10 -249 29 -480 69 -888 106 -1156
106 l-162 0 51 108 c224 479 368 1038 368 1433 0 49 3 89 8 89 4 0 33 -17 65
-38z m3208 -834 c13 -212 36 -472 59 -668 20 -160 65 -458 76 -491 4 -15 -9
-14 -113 8 -242 49 -735 123 -819 123 -32 0 -35 2 -28 23 21 68 69 191 120
307 l58 132 16 -74 c20 -90 40 -131 94 -186 55 -57 122 -78 192 -61 67 17 142
93 174 174 48 125 24 290 -56 384 -53 61 -104 84 -175 79 l-57 -4 29 41 c49
68 150 178 222 242 64 56 186 137 195 129 2 -3 8 -73 13 -158z m-4945 -7481
c81 -171 156 -356 197 -482 53 -161 107 -430 107 -530 l0 -40 -20 25 c-10 14
-72 113 -136 220 -398 662 -626 976 -806 1114 -21 16 -38 31 -38 35 0 4 64 51
143 104 78 53 164 114 192 135 l50 39 119 -231 c65 -127 152 -302 192 -389z"/>
<path d="M4744 8817 c-134 -64 -214 -217 -214 -408 0 -95 24 -194 65 -264 38
-66 115 -131 176 -149 65 -20 73 -20 136 -1 138 41 243 221 243 415 0 135 -40
249 -117 331 -88 95 -192 122 -289 76z"/>
<path d="M3711 7304 c-142 -38 -314 -183 -386 -324 -60 -119 -87 -305 -66
-465 13 -99 51 -252 77 -312 l17 -38 17 100 c10 55 23 120 29 144 32 116 96
211 158 237 59 25 68 20 83 -43 21 -96 79 -261 142 -403 264 -598 759 -1216
1413 -1760 467 -389 1319 -944 1895 -1235 571 -288 988 -399 1336 -356 178 23
455 102 645 186 184 80 340 212 374 316 52 154 -22 292 -327 617 -178 189
-556 545 -790 745 l-56 48 -47 -28 -48 -28 -47 -140 c-61 -181 -80 -227 -147
-358 -117 -229 -224 -327 -356 -327 -104 0 -130 49 -148 284 -11 151 -34 266
-77 385 l-27 75 -110 23 c-421 87 -1087 417 -1690 836 -558 388 -1061 840
-1390 1250 -56 70 -115 145 -130 167 l-27 39 22 46 c30 62 70 88 142 93 44 3
74 -1 119 -18 33 -12 64 -19 67 -15 8 9 -71 80 -154 141 -162 117 -354 161
-513 118z"/>
<path d="M9765 6195 c-47 -17 -82 -57 -91 -102 -9 -46 26 -113 75 -143 47 -30
55 -59 33 -113 -16 -41 -88 -97 -124 -97 -10 0 -18 -4 -18 -9 0 -4 26 -11 58
-14 130 -14 231 36 278 138 27 56 32 142 12 207 -12 42 -78 124 -106 132 -49
14 -81 14 -117 1z"/>
<path d="M7648 6120 c-101 -31 -164 -123 -175 -250 -14 -168 86 -303 245 -331
62 -11 192 -4 192 10 0 3 -20 12 -44 19 -86 26 -146 98 -146 176 0 28 6 39 28
53 49 30 101 86 113 121 38 116 -93 241 -213 202z"/>
</g>
</svg>
