<?xml version="1.0" encoding="UTF-8"?>
<svg width="72px" height="72px" viewBox="0 0 72 72" version="1.1" xmlns="http://www.w3.org/2000/svg" xmlns:xlink="http://www.w3.org/1999/xlink">
    <title>DC3C65ED-C908-4279-BD9D-9756710E167A</title>
    <g id="Home-Design" stroke="none" stroke-width="1" fill="none" fill-rule="evenodd">
        <g id="HG-Wires---Home-XL" transform="translate(-1097.000000, -854.000000)">
            <g id=".o-features--large-copy" transform="translate(422.000000, 751.000000)">
                <g id="VPSIcon" transform="translate(675.000000, 103.000000)">
                    <path d="M72,52 C72,32.117749 55.882251,16 36,16 C16.117749,16 0,32.117749 0,52 L72,52 Z" id="Oval" fill="#FFD54C"></path>
                    <path d="M37.0537489,23.1170809 L10.9241894,68.5 L62.1900795,68.5 L37.0537489,23.1170809 Z" id="Path-20" stroke="#1F2044" stroke-width="7" fill="#FFFFFF"></path>
                    <path d="M52.5,3.5 L37.5,3.5 L37.5,14.5 L52.5,14.5 L52.5,3.5 Z" id="Path-25" stroke="#1F2044" stroke-width="7"></path>
                    <rect id="Rectangle" fill="#1F2044" x="34" y="16" width="7" height="11"></rect>
                    <polygon id="Path-16" fill="#1F2044" fill-rule="nonzero" points="44 36.7054079 52.4732966 23 72 53 52.6278652 53 52.6278652 46.7282714 59.4553055 46.7282714 52.7819566 35.5126287 50.1772638 39.7278715"></polygon>
                    <polygon id="Path-21" fill="#1F2044" fill-rule="nonzero" points="0 58 21.0116686 23 29 37.516173 22.7447026 40.357911 20.7410213 36.7184768 11.7801766 51.6456807 17.8796255 51.6456807 17.8796255 58"></polygon>
                </g>
            </g>
        </g>
    </g>
</svg>