<?xml version="1.0" encoding="UTF-8"?>
<svg width="72px" height="72px" viewBox="0 0 72 72" version="1.1" xmlns="http://www.w3.org/2000/svg" xmlns:xlink="http://www.w3.org/1999/xlink">
    <title>2780C919-18F1-4AA4-8B9F-6804559D13F9</title>
    <g id="Home-Design" stroke="none" stroke-width="1" fill="none" fill-rule="evenodd">
        <g id="HG-Wires---Home-XL" transform="translate(-872.000000, -854.000000)">
            <g id=".o-features--large-copy" transform="translate(422.000000, 751.000000)">
                <g id="WordPressIcon-Blue" transform="translate(450.000000, 103.000000)">
                    <circle id="Oval-Copy-4" fill="#3C97FF" cx="36" cy="36" r="36"></circle>
                    <circle id="Oval-Copy-4" fill="#1F2044" cx="34" cy="33" r="30"></circle>
                    <path d="M11.2551253,22 L11.481492,22 L24,57 L23.8868166,57 C18.6996014,54.5593986 14.6015091,50.4404777 11.5925399,44.6454028 C9.8648918,40.6824032 9,36.7540527 9,32.8646826 C9,29.358619 9.75170843,25.7356144 11.2551253,22" id="Fill-77-Copy" fill="#3C97FF"></path>
                    <path d="M36.1468685,6 C42.8516874,6 48.801305,8.45266523 54,13.3602438 L54,13.4793925 L53.6598385,13.3602438 C51.5525485,13.3602438 50.082794,14.7068492 49.2548537,17.3978119 L49.2548537,18.4656542 C49.2548537,20.050557 50.3095684,22.5054704 52.4168583,25.8281461 C53.471573,27.9660788 54,30.2613778 54,32.7140431 C54,34.7732927 53.0586725,38.6130289 51.1760175,44.2332517 L49.3661015,50.7639506 C49.2163449,50.7639506 48.2365085,47.7942249 46.4287319,41.8570215 L39.6490346,20.7227357 L39.7624218,20.7227357 C42.3981387,20.7227357 43.7181366,20.3652895 43.7181366,19.6548933 L43.7181366,19.2974472 C43.5662406,18.7444172 43.3030968,18.4274367 42.9265658,18.3487536 L35.582072,18.7039516 L28.124191,18.3487536 C27.7476601,18.5848029 27.5593946,18.9422491 27.5593946,19.4165959 L27.4460074,19.4165959 C27.4460074,20.2888545 28.5392309,20.7227357 30.7235385,20.7227357 L31.288335,20.8418844 L35.3552976,32.8331918 L29.5939456,51 L29.4805584,51 L19.8768786,20.8418844 L19.8768786,20.7227357 L19.9881264,20.7227357 C22.5511045,20.7227357 23.8304541,20.4057551 23.8304541,19.7740421 L23.8304541,19.4165959 C23.8304541,18.9422491 23.5673103,18.5848029 23.0388832,18.3487536 L14.4514093,18.7039516 L14,18.7039516 L14,18.4656542 C14.753062,17.0426138 16.5244692,14.9833641 19.3099428,12.2924015 C24.3588811,8.09746715 29.9704765,6 36.1468685,6" id="Fill-78-Copy" fill="#FFFFFF"></path>
                    <path d="M36.6897362,35 C36.85427,35 38.0130582,37.9081543 40.1661008,43.7200599 L46,58.4875837 L45.8754244,58.4875837 C42.648211,59.4958612 39.4209976,60 36.1937843,60 C33.2956385,60 30.5643771,59.6125396 28,58.8354174 L36.6897362,35 Z" id="Fill-79-Copy" fill="#3C97FF"></path>
                    <path d="M59.6674219,19 L59.8904353,19 C61.964881,23.3856465 63,27.8091002 63,32.2725852 C63,40.2610447 60.0377084,47.1508685 54.1110212,52.9465048 C52.7035119,54.1985935 51.3696391,55.2171666 50.1115067,56 L50,56 L50,55.8821302 L59.1119922,27.8091002 C59.6295517,25.5384384 59.8904353,23.5413236 59.8904353,21.8199796 L59.6674219,19 Z" id="Fill-80-Copy" fill="#3C97FF"></path>
                    <path d="M36,0 C17.7746033,0 3,14.7746033 3,33 C3,51.2253967 17.7746033,66 36,66 C54.2253967,66 69,51.2253967 69,33 C69,14.7746033 54.2253967,0 36,0 Z M36,6.6 C50.5803174,6.6 62.4,18.4196826 62.4,33 C62.4,47.5803174 50.5803174,59.4 36,59.4 C21.4196826,59.4 9.6,47.5803174 9.6,33 C9.6,18.4196826 21.4196826,6.6 36,6.6 Z" id="Oval-Copy" fill="#1F2044" fill-rule="nonzero"></path>
                </g>
            </g>
        </g>
    </g>
</svg>