<?xml version="1.0" encoding="utf-8"?><svg width="18" height="20" viewBox="0 0 18 20" fill="none" xmlns="http://www.w3.org/2000/svg"><path fill-rule="evenodd" clip-rule="evenodd" d="M7.17947 3.91012C3.64613 4.89359 1.56332 8.65981 2.50446 12.3084C3.4456 15.957 7.06218 18.1368 10.5955 17.1534C14.1289 16.1699 16.2117 12.4037 15.2705 8.75509C14.8688 7.19771 13.9808 5.90822 12.8184 5.01776L13.2958 6.86869L11.1834 7.45665L9.72558 1.80485L15.1578 0.292849L15.7284 2.50503L13.8941 3.01559C15.5467 4.20481 16.8206 5.98698 17.3829 8.16713C18.6436 13.0543 15.85 18.0619 11.1662 19.3655C6.48234 20.6692 1.6527 17.7836 0.392055 12.8964C-0.868586 8.00915 1.92503 3.00163 6.60885 1.69794L7.17947 3.91012Z" fill="#265951" /></svg>