<?xml version="1.0" encoding="utf-8"?><svg width="20" height="21" viewBox="0 0 20 21" fill="none" xmlns="http://www.w3.org/2000/svg"><path fill-rule="evenodd" clip-rule="evenodd" d="M19.8762 12.3771V8.33125L17.3661 7.47045C17.306 7.30976 17.2404 7.14621 17.1693 6.97978L18.3587 4.50065L15.6272 1.63415L13.2648 2.88233C13.1117 2.80199 12.9558 2.73312 12.7972 2.67573L11.9769 0.0416565H8.10527L7.28499 2.67573C7.12641 2.73312 6.97056 2.80199 6.81744 2.88233L4.45506 1.63415L1.72356 4.50065L2.91295 6.97978C2.84186 7.14621 2.77624 7.30976 2.71608 7.47045L0.206055 8.33125V12.3771L2.71608 13.2379C2.77077 13.3986 2.83639 13.5621 2.91295 13.7285L1.72356 16.2077L4.45506 19.0742L6.81744 17.826C6.97056 17.9063 7.12641 17.9752 7.28499 18.0326L8.10527 20.6667H11.9605L12.7808 18.0326C12.9394 17.9752 13.0952 17.9063 13.2484 17.826L15.6107 19.0742L18.3423 16.2077L17.1529 13.7285C17.2294 13.5621 17.295 13.3986 17.3497 13.2379L19.8762 12.3771ZM16.3572 15.8892L15.3073 16.991L13.2566 15.9236L12.8875 16.1216C12.5696 16.2984 12.2375 16.4453 11.8949 16.5606L11.5012 16.6897L10.7794 18.9623H9.28648L8.56464 16.6897L8.17091 16.5606C7.82835 16.4453 7.49621 16.2984 7.17838 16.1216L6.80926 15.9236L4.75858 16.991L3.70863 15.8892L4.72577 13.7371L4.53711 13.3498C4.3686 13.0162 4.22861 12.6677 4.11877 12.3082L3.99573 11.895L1.83021 11.1375V9.57082L3.99573 8.81331L4.11877 8.40012C4.22861 8.04063 4.3686 7.69208 4.53711 7.35854L4.72577 6.97118L3.70863 4.81915L4.75858 3.71731L6.80926 4.78472L7.17838 4.58673C7.49621 4.4099 7.82835 4.26299 8.17091 4.14772L8.56464 4.0186L9.28648 1.74606H10.7794L11.5012 4.0186L11.8949 4.14772C12.2375 4.26299 12.5696 4.4099 12.8875 4.58673L13.2566 4.78472L15.3073 3.71731L16.3572 4.81915L15.3401 6.97118L15.5287 7.35854C15.6972 7.69208 15.8372 8.04063 15.9471 8.40012L16.0701 8.81331L18.2356 9.57082V11.1375L16.0701 11.895L15.9471 12.3082C15.8372 12.6677 15.6972 13.0162 15.5287 13.3498L15.3401 13.7371L16.3572 15.8892ZM10.033 6.91092C8.22086 6.91092 6.75187 8.45251 6.75187 10.3542C6.75187 12.2558 8.22086 13.7974 10.033 13.7974C11.845 13.7974 13.314 12.2558 13.314 10.3542C13.314 8.45251 11.845 6.91092 10.033 6.91092ZM10.0329 12.0758C9.12686 12.0758 8.39236 11.305 8.39236 10.3542C8.39236 9.40333 9.12686 8.63253 10.0329 8.63253C10.9389 8.63253 11.6734 9.40333 11.6734 10.3542C11.6734 11.305 10.9389 12.0758 10.0329 12.0758Z" fill="#00A88E" /></svg>