<svg width="23" height="16" viewBox="0 0 23 16" fill="none" xmlns="http://www.w3.org/2000/svg">
<path d="M3.88436 13.5451C3.80513 13.1567 3.47236 13.0479 3.10791 13.0169C1.93531 12.9081 1.72931 13.7782 1.72931 14.1356C1.72931 14.7571 1.91946 15.2698 3.07621 15.2698C3.28221 15.2698 3.86851 15.0523 3.86851 14.7105H5.53234C5.46895 15.7515 3.69421 16.0001 2.91775 16.0001C1.31732 15.9845 -0.061281 15.7049 0.00210271 14.1511C0.0496405 13.0479 1.11132 12.2711 3.23467 12.3177C4.42312 12.3487 5.54818 12.7061 5.56403 13.5451H3.88436Z" fill="#002F6C"/>
<path d="M20.5067 13.545C20.4274 13.1565 20.0947 13.0478 19.7302 13.0167C18.5576 12.9079 18.3516 13.778 18.3516 14.1354C18.3516 14.7569 18.5418 15.2697 19.6827 15.2697C19.8887 15.2697 20.4908 15.0521 20.4908 14.7103H22.1547C22.0913 15.7513 20.3165 15.9999 19.5401 15.9999C17.9396 15.9999 16.561 15.7047 16.6244 14.1665C16.672 13.0633 17.7336 12.2864 19.857 12.333C21.0454 12.3641 22.1705 12.7215 22.1863 13.5605H20.5067V13.545Z" fill="#002F6C"/>
<path d="M5.86523 12.3953H8.02028L9.85841 14.9279H9.87426V12.3953H11.2529V15.9068H9.19288L7.25968 13.3741H7.24383V15.9068H5.86523V12.3953Z" fill="#002F6C"/>
<path d="M11.6648 12.3953H14.2794C15.5312 12.3953 16.276 12.7371 16.276 13.2654C16.276 13.5761 15.959 13.949 15.2777 14.0578V14.0733C16.1175 14.1199 16.4186 14.6327 16.4186 14.9434C16.4186 15.5649 15.7055 15.9068 14.2952 15.9068H11.6648V12.3953ZM13.186 13.747H13.6138C14.2794 13.747 14.6438 13.7004 14.6438 13.4207C14.6438 13.1255 14.3428 13.0323 13.7406 13.0323H13.186V13.747ZM13.186 15.161H13.6138C14.422 15.161 14.7231 15.0833 14.7231 14.8036C14.7231 14.5084 14.3428 14.4152 13.7406 14.4152H13.186V15.161Z" fill="#002F6C"/>
<path d="M15.4357 1.25469C15.3089 0.959476 15.1029 0.710874 14.8494 0.477809C14.2156 -0.0504711 13.2014 -0.159235 12.4884 0.244744C11.7911 0.60211 11.395 1.28577 11.3792 2.03157L11.4108 2.06265L12.3141 2.07819C12.3774 2.1248 12.4725 2.10926 12.4884 2.20249C12.1239 2.48217 11.4901 2.73077 11.5693 3.29012L12.5201 9.28766L12.5359 9.25658L15.2139 3.35227C15.5625 2.77738 15.7685 1.90727 15.4357 1.25469Z" fill="#002F6C"/>
<path d="M9.68402 9.25652L10.7774 2.40442C10.8566 1.90722 10.7299 1.45662 10.508 1.05265C10.2703 0.664205 9.89002 0.353452 9.49387 0.182538C8.73327 -0.128215 7.79836 0.0271617 7.21206 0.602054C6.6416 1.16141 6.40391 1.95383 6.65745 2.73071L9.3988 8.7127L9.68402 9.27206V9.25652Z" fill="#002F6C"/>
<path d="M19.3972 3.94251C19.7617 4.56401 19.6824 5.48073 19.2704 6.05563C19.0169 6.45961 18.6049 6.6616 18.2404 6.92574L12.5676 10.7325H12.5518L12.6151 10.546L15.6259 3.89589C16.0696 3.11901 16.9411 2.71503 17.8443 2.83933C18.4623 2.9481 19.0961 3.35208 19.3972 3.94251Z" fill="#002F6C"/>
<path d="M3.29797 6.47537L9.58881 10.7327H9.63635L6.5147 3.89612C5.99178 2.9794 4.86672 2.6065 3.88427 2.96386C3.28213 3.18139 2.77506 3.74074 2.60075 4.34671C2.39475 5.15467 2.64829 5.94709 3.29797 6.47537Z" fill="#002F6C"/>
<path d="M20.7759 10.8573C21.2196 10.2979 21.3464 9.41229 21.0295 8.7597C20.8235 8.30911 20.3956 7.87406 19.9203 7.68761C19.3181 7.40793 18.4783 7.47008 17.9395 7.81191L12.3142 11.6652H19.0329C19.7301 11.6652 20.3323 11.3856 20.7759 10.8573Z" fill="#002F6C"/>
<path d="M9.85811 11.6652L4.2328 7.81191C3.67819 7.47008 2.8542 7.40793 2.25206 7.68761C1.79253 7.85852 1.34884 8.30911 1.14284 8.7597C0.825924 9.41228 0.952692 10.2979 1.39638 10.8573C1.84006 11.3856 2.44221 11.6808 3.13943 11.6652H9.85811Z" fill="#002F6C"/>
</svg>
