<svg width="33" height="16" viewBox="0 0 33 16" fill="none" xmlns="http://www.w3.org/2000/svg">
<path d="M0 4C0 1.79086 1.79086 0 4 0H29C31.2091 0 33 1.79086 33 4V12C33 14.2091 31.2091 16 29 16H4C1.79086 16 0 14.2091 0 12V4Z" fill="#00A857"/>
<path d="M4 11.996H6.064V9.284H8.008C9.808 9.284 10.792 8.096 10.792 6.656C10.792 5.204 9.808 3.992 8.008 3.992H4V11.996ZM8.692 6.644C8.692 7.184 8.284 7.532 7.732 7.532H6.064V5.732H7.732C8.284 5.732 8.692 6.092 8.692 6.644Z" fill="white"/>
<path d="M16.6549 11.996H19.0189L17.3869 9.056C18.1309 8.792 18.9829 8.048 18.9829 6.656C18.9829 5.168 17.9749 3.992 16.1989 3.992H12.1909V11.996H14.2549V9.284H15.3109L16.6549 11.996ZM16.8829 6.632C16.8829 7.184 16.4269 7.532 15.8869 7.532H14.2549V5.732H15.8869C16.4269 5.732 16.8829 6.08 16.8829 6.632Z" fill="white"/>
<path d="M20.1965 8C20.1965 10.436 22.0325 12.14 24.4805 12.14C26.9285 12.14 28.7525 10.436 28.7525 8C28.7525 5.564 26.9285 3.86 24.4805 3.86C22.0325 3.86 20.1965 5.564 20.1965 8ZM26.6525 8C26.6525 9.296 25.8005 10.316 24.4805 10.316C23.1485 10.316 22.2965 9.296 22.2965 8C22.2965 6.692 23.1485 5.684 24.4805 5.684C25.8005 5.684 26.6525 6.692 26.6525 8Z" fill="white"/>
</svg>
