<svg width="18" height="18" viewBox="0 0 18 18" fill="none" xmlns="http://www.w3.org/2000/svg">
<path d="M6.95996 6.12003L11.76 9.00003L6.95996 11.88V6.12003Z" fill="white"/>
<path fill-rule="evenodd" clip-rule="evenodd" d="M8.56 0.440002C3.83244 0.440002 0 4.27245 0 9C0 13.7276 3.83244 17.56 8.56 17.56C13.2876 17.56 17.12 13.7276 17.12 9C17.12 4.27245 13.2876 0.440002 8.56 0.440002ZM1.12 9C1.12 4.891 4.451 1.56 8.56 1.56C12.669 1.56 16 4.891 16 9C16 13.109 12.669 16.44 8.56 16.44C4.451 16.44 1.12 13.109 1.12 9Z" fill="white"/>
</svg>
