<svg width="110" height="31" viewBox="0 0 110 31" fill="none" xmlns="http://www.w3.org/2000/svg">
<path d="M34.7783 21.7734L36.5618 19.3324C37.5259 20.26 38.5382 20.6994 39.6468 20.6994C40.3699 20.6994 40.8037 20.4553 40.8037 20.0159C40.8037 19.6254 40.4663 19.3813 38.972 18.8931C36.9957 18.2584 35.2604 17.282 35.2604 14.9876C35.2604 12.5466 37.2367 11.1797 39.695 11.1797C41.4785 11.1797 42.78 11.6679 44.1297 12.6931L42.3462 15.3293C41.5268 14.4994 40.5145 14.06 39.7432 14.06C39.3094 14.06 38.8274 14.2553 38.7792 14.6946C38.7792 15.0852 39.213 15.3293 40.3699 15.7687C42.9728 16.6962 44.3707 17.3797 44.3707 19.723C44.3707 21.9687 42.78 23.5309 39.5504 23.5309C37.7187 23.5309 36.0798 22.945 34.7783 21.7734Z" fill="#0477C9"/>
<path fill-rule="evenodd" clip-rule="evenodd" d="M49.4803 18.4049H57.5302C57.5302 18.3333 57.5344 18.2324 57.539 18.1193C57.5502 17.8466 57.5643 17.5034 57.5302 17.3309C57.5302 13.8159 55.1201 11.2773 51.7941 11.2773C48.227 11.2773 45.7205 13.8159 45.7205 17.4285C45.7205 21.1388 48.3234 23.6285 51.8905 23.6285C54.5416 23.6285 56.1805 22.701 57.1928 21.4805L55.0237 19.2348C54.2524 20.1136 53.2401 20.5041 52.2761 20.5041C50.83 20.5041 49.7213 19.7718 49.4803 18.4049ZM53.9631 16.1104H49.5284C49.7694 14.8899 50.6371 14.2065 51.8422 14.2065C52.9508 14.2065 53.7221 14.9388 53.9631 16.1104Z" fill="#0477C9"/>
<path d="M59.6992 6.00488H63.4591V23.3356H59.6992V6.00488Z" fill="#0477C9"/>
<path fill-rule="evenodd" clip-rule="evenodd" d="M69.3399 18.4049H77.3898C77.3898 18.3333 77.394 18.2366 77.3986 18.1282C77.4098 17.8669 77.4239 17.5379 77.3898 17.3309C77.3898 13.8159 74.9797 11.2773 71.6537 11.2773C68.0866 11.2773 65.5801 13.8159 65.5801 17.4285C65.5801 21.1388 68.183 23.6285 71.7501 23.6285C74.4012 23.6285 76.0401 22.701 77.0524 21.4805L74.8833 19.2348C74.112 20.1136 73.0998 20.5041 72.1357 20.5041C70.6896 20.5041 69.5809 19.7718 69.3399 18.4049ZM73.8228 16.1104H69.3882C69.6292 14.9388 70.4968 14.2065 71.7019 14.2065C72.8106 14.2065 73.5818 14.9388 73.8228 16.1104Z" fill="#0477C9"/>
<path d="M78.8842 17.4285C78.8842 13.6695 81.3908 11.2285 85.1506 11.2285C86.9823 11.2285 88.9104 11.8143 90.2119 13.3277L87.7536 15.7687C87.2233 15.0364 86.3075 14.6458 85.4398 14.6458C83.8009 14.6458 82.644 15.7687 82.644 17.4285C82.644 19.1372 83.8009 20.2112 85.4398 20.2112C86.5003 20.2112 87.2715 19.8206 87.9464 19.0884L90.2601 21.5293C89.1997 22.7498 87.4644 23.5797 85.006 23.5797C81.439 23.5797 78.836 21.0899 78.8842 17.4285Z" fill="#0477C9"/>
<path d="M92.3809 19.6256V14.4996H91.0312V11.424H92.3809V7.56731L96.189 7.17676V11.424H99.033V14.4996H96.189V18.8933C96.189 19.6744 96.3336 20.2602 97.0566 20.2602C97.3459 20.2602 97.8279 20.2114 98.2135 20.0161L99.1294 22.8476C98.3099 23.287 97.4423 23.6287 95.8034 23.6287C93.827 23.6287 92.3809 22.3106 92.3809 19.6256Z" fill="#0477C9"/>
<path d="M25.5615 11.9752C25.4364 11.6586 25.2489 11.4054 24.9363 11.1521C24.3111 10.5823 23.2483 10.4556 22.4981 10.8988C21.8104 11.2787 21.3728 11.9752 21.3728 12.7983H22.3106C22.3731 12.8616 22.4981 12.8616 22.4981 12.925C22.123 13.2415 21.4978 13.4948 21.5604 14.0646L22.5606 20.3963L25.3114 14.1913C25.6865 13.6214 25.8741 12.6717 25.5615 11.9752Z" fill="#0477C9"/>
<path d="M19.6842 20.4596L20.8095 13.2416C20.872 12.7351 20.747 12.2286 20.5595 11.8487C20.3094 11.4688 19.9343 11.0889 19.4967 10.9622C18.7465 10.6456 17.7462 10.7723 17.1835 11.4054C16.6209 11.9753 16.3708 12.8617 16.6209 13.6848L19.4341 20.0164L19.6842 20.4596Z" fill="#0477C9"/>
<path d="M29.6252 14.8245C30.0004 15.4576 29.9378 16.4707 29.5002 17.0405C29.2501 17.4838 28.8125 17.6737 28.4374 17.927L22.6233 21.9792L22.6858 21.7893L25.7492 14.7612C26.1868 13.9381 27.062 13.4948 27.9998 13.6215C28.625 13.8114 29.3127 14.1913 29.6252 14.8245Z" fill="#0477C9"/>
<path d="M13.1197 17.4836L19.559 21.9791H19.6215L16.4331 14.761C15.8705 13.8113 14.7452 13.3681 13.7449 13.748C13.1197 14.0012 12.6196 14.5711 12.432 15.2043C12.2445 16.0907 12.4945 16.9771 13.1197 17.4836Z" fill="#0477C9"/>
<path d="M31.0002 22.1058C31.4378 21.536 31.5629 20.5862 31.2503 19.8898C31.0627 19.4465 30.6251 18.94 30.125 18.7501C29.4998 18.4335 28.6871 18.4968 28.1244 18.8767L22.3728 22.9289H29.2497C29.9374 22.9922 30.5626 22.6757 31.0002 22.1058Z" fill="#0477C9"/>
<path d="M19.8717 22.9924L14.1201 18.9402C13.5574 18.5603 12.6822 18.497 12.1195 18.8135C11.6194 19.0035 11.1817 19.4467 10.9942 19.9532C10.6816 20.6497 10.8066 21.5995 11.2443 22.1693C11.6819 22.7391 12.3071 23.0557 12.9948 22.9924H19.8717Z" fill="#0477C9"/>
<path fill-rule="evenodd" clip-rule="evenodd" d="M94.9606 0H15.0399C6.7183 0 -0.0499969 6.83877 0.000278284 15.2359L0.000264992 15.7197C0.000264992 24.098 6.75145 30.9512 15.0399 30.9512H94.9606C103.233 30.9512 110 24.114 110 15.7197V15.2315C110 6.85311 103.249 0 94.9606 0ZM1.44644 15.2315C1.40103 7.64498 7.51775 1.46457 15.04 1.46457H94.9607C102.45 1.46457 108.554 7.66121 108.554 15.2315V15.7197C108.554 23.3044 102.436 29.4866 94.9607 29.4866H15.04C7.55093 29.4866 1.44644 23.2899 1.44644 15.7197V15.2315Z" fill="#0477C9"/>
<path d="M0.00146484 16.4891C0.408531 24.5798 7.02656 30.9998 15.0399 30.9998H94.9606C102.974 30.9998 109.592 24.5798 109.999 16.4891L108.555 16.4146C108.187 23.7289 102.201 29.5353 94.9606 29.5353H15.0399C7.79912 29.5353 1.81369 23.7289 1.44568 16.4146L0.00146484 16.4891Z" fill="#74C5FF"/>
</svg>
